<svg id="Layer_1" data-name="Layer 1" xmlns="http://www.w3.org/2000/svg" width="300" height="400" viewBox="0 0 300 400"><defs><style>.cls-1{fill:#ff82b8;}.cls-2{fill:pink;}.cls-3{fill:#ffe0e9;}</style></defs><rect class="cls-1" x="100" width="50" height="50"/><rect class="cls-1" x="100" y="50" width="50" height="50"/><rect class="cls-2" x="150" y="50" width="50" height="50" transform="translate(250 -100) rotate(90)"/><rect class="cls-2" x="150" width="50" height="50" transform="translate(200 -150) rotate(90)"/><rect class="cls-1" y="100" width="50" height="50"/><rect class="cls-2" x="50" y="100" width="50" height="50"/><rect class="cls-1" x="100" y="200" width="100" height="100"/><rect class="cls-2" x="200" y="200" width="100" height="100"/><rect class="cls-3" x="100" y="300" width="50" height="100"/><rect class="cls-3" x="200" y="300" width="50" height="100"/><rect class="cls-2" x="250" y="300" width="50" height="100"/><rect class="cls-1" x="150" y="300" width="50" height="100"/><polygon class="cls-2" points="0 300 100 400 100 300 0 300"/><polygon class="cls-1" points="100 400 0 300 0 400 100 400"/><circle class="cls-3" cx="50" cy="350" r="25"/><path class="cls-2" d="M150,300h0a50,50,0,0,1,50,50v0a50,50,0,0,1-50,50h0a0,0,0,0,1,0,0V300A0,0,0,0,1,150,300Z"/><path class="cls-3" d="M0,150a50,50,0,0,1,50-50v50Z"/><path class="cls-2" d="M100,300A100,100,0,0,1,200,200V300Z"/><path class="cls-3" d="M150,300a50,50,0,0,1,50-50v50Z"/><path class="cls-3" d="M200,200A100,100,0,0,1,300,300H200Z"/><path class="cls-1" d="M200,250a50,50,0,0,1,50,50H200Z"/><rect class="cls-2" x="200" width="100" height="100" transform="translate(500 100) rotate(180)"/><path class="cls-1" d="M300,100A100,100,0,0,1,200,0H300Z"/><path class="cls-3" d="M300,50A50,50,0,0,1,250,0h50Z"/><rect class="cls-2" x="100" y="100" width="100" height="100" transform="translate(300 0) rotate(90)"/><path class="cls-3" d="M200,100A100,100,0,0,1,100,200V100Z"/><path class="cls-1" d="M150,100a50,50,0,0,1-50,50V100Z"/><rect class="cls-3" x="50" y="200" width="50" height="50"/><rect class="cls-1" x="50" y="250" width="50" height="50"/><rect class="cls-1" y="200" width="50" height="50"/><rect class="cls-3" y="250" width="50" height="50"/><polygon class="cls-1" points="300 400 250 400 250 350 300 400"/><polygon class="cls-1" points="250 350 250 300 300 300 250 350"/><polygon class="cls-2" points="200 300 250 300 250 350 200 300"/><rect class="cls-2" x="25" y="225" width="50" height="50" transform="translate(191.42 37.87) rotate(45)"/><polygon class="cls-3" points="100 100 50 50 0 100 100 100"/><polygon class="cls-1" points="100 0 50 50 100 100 100 0"/><polygon class="cls-3" points="0 0 50 50 100 0 0 0"/><polygon class="cls-2" points="0 100 50 50 0 0 0 100"/><rect class="cls-1" x="25" y="125" width="50" height="100" transform="translate(-125 225) rotate(-90)"/><polygon class="cls-2" points="50 200 0 200 0 150 50 200"/><rect class="cls-3" x="200" y="100" width="50" height="50"/><rect class="cls-1" x="200" y="150" width="50" height="50"/><rect class="cls-1" x="250" y="100" width="50" height="100"/><polygon class="cls-3" points="300 200 250 200 250 150 300 200"/><polygon class="cls-2" points="300 150 250 150 250 100 300 150"/><path class="cls-3" d="M100,50a50,50,0,0,1,50,50H100Z"/><path class="cls-1" d="M150,100a50,50,0,0,1,50-50v50Z"/><path class="cls-2" d="M100,0a50,50,0,0,1,50,50H100Z"/><path class="cls-3" d="M150,50A50,50,0,0,1,200,0V50Z"/></svg>